<?xml version="1.0" encoding="UTF-8"?>
<svg id="Layer_1" data-name="Layer 1" xmlns="http://www.w3.org/2000/svg" viewBox="0 0 1189 280.74">
  <defs>
    <style>
      .cls-1 {
        fill: #d81f26;
      }
    </style>
  </defs>
  <path class="cls-1" d="m140.8,262.9c-15.4,2.7-31.08,3.52-47.29,5.68L44.05,123.72v151.07c-15.4,1.62-29.46,3.78-44.05,5.95V4h41.08l56.21,157.02V4h43.51v258.9h0Zm85.13-157.56c16.76,0,42.43-.81,57.83-.81v43.24c-19.19,0-41.62,0-57.83.81v64.32c25.4-1.62,50.81-3.79,76.48-4.6v41.62l-119.72,9.46V4h119.72v43.24h-76.48s0,58.1,0,58.1Zm402.28-62.1h-44.86v198.91c-14.59,0-29.19,0-43.24.54V43.24h-44.86V0h132.96s0,43.24,0,43.24Zm70.27,55.13h59.19v43.24h-59.19v98.1h-42.43V0h120.81v43.24h-78.38v55.13Zm148.64,103.51c24.59.54,49.46,2.43,73.51,3.78v42.7c-38.65-2.43-77.29-4.86-116.75-5.68V0h43.24v201.88h0Zm109.99,51.46c13.78.81,28.38,1.62,42.43,3.24V2h-42.43v251.34ZM1189,4l-54.86,131.62,54.86,145.13c-16.22-2.16-32.43-5.14-48.65-7.84l-31.08-79.99-31.62,73.51c-15.68-2.7-30.81-3.52-46.48-5.68l55.67-126.75L1036.58,4h46.48l28.38,72.7,30.27-72.7h47.29ZM480.65,1.32l-54.86,126.62,54.86,115.13c-4.48-.38-39.09.74-48.65,1.16l-31.08-58.99c-10.51,18.46-21,41.93-31.55,60.36,0,0-43.33,2.47-46.61,2.47,0,0,19.01-44.75,28.42-64.48,9.1-19.09,18.2-38.18,27.31-57.27L328.23,1.32h46.48l28.38,67.7L433.36,1.32s47.29,0,47.29,0Z"/>
</svg>